<?xml version="1.0" encoding="UTF-8" standalone="no"?>
<!-- Created with Inkscape (http://www.inkscape.org/) -->

<svg
   xmlns:dc="http://purl.org/dc/elements/1.1/"
   xmlns:cc="http://creativecommons.org/ns#"
   xmlns:rdf="http://www.w3.org/1999/02/22-rdf-syntax-ns#"
   xmlns:svg="http://www.w3.org/2000/svg"
   xmlns="http://www.w3.org/2000/svg"
   xmlns:sodipodi="http://sodipodi.sourceforge.net/DTD/sodipodi-0.dtd"
   xmlns:inkscape="http://www.inkscape.org/namespaces/inkscape"
   width="512"
   height="512"
   id="svg5449"
   version="1.1"
   inkscape:version="0.48.2 r9819"
   sodipodi:docname="select-polygon.svg">
  <defs
     id="defs5451" />
  <sodipodi:namedview
     id="base"
     pagecolor="#ffffff"
     bordercolor="#666666"
     borderopacity="1.0"
     inkscape:pageopacity="0.0"
     inkscape:pageshadow="2"
     inkscape:zoom="0.6875"
     inkscape:cx="72.454976"
     inkscape:cy="269.04187"
     inkscape:current-layer="layer1"
     showgrid="true"
     inkscape:document-units="px"
     inkscape:grid-bbox="true"
     inkscape:window-width="1280"
     inkscape:window-height="671"
     inkscape:window-x="0"
     inkscape:window-y="0"
     inkscape:window-maximized="1">
    <inkscape:grid
       type="xygrid"
       id="grid5457"
       empspacing="2"
       visible="true"
       enabled="true"
       snapvisiblegridlinesonly="true"
       spacingx="16px"
       spacingy="16px"
       dotted="false"
       empcolor="#0000ff"
       empopacity="0.25098039"
       color="#00bfff"
       opacity="0.1254902" />
  </sodipodi:namedview>
  <metadata
     id="metadata5454">
    <rdf:RDF>
      <cc:Work
         rdf:about="">
        <dc:format>image/svg+xml</dc:format>
        <dc:type
           rdf:resource="http://purl.org/dc/dcmitype/StillImage" />
        <dc:title></dc:title>
      </cc:Work>
    </rdf:RDF>
  </metadata>
  <g
     id="layer1"
     inkscape:label="Layer 1"
     inkscape:groupmode="layer"
     transform="translate(0,448)">
    <path
       style="font-size:medium;font-style:normal;font-variant:normal;font-weight:normal;font-stretch:normal;text-indent:0;text-align:start;text-decoration:none;line-height:normal;letter-spacing:normal;word-spacing:normal;text-transform:none;direction:ltr;block-progression:tb;writing-mode:lr-tb;text-anchor:start;baseline-shift:baseline;color:#000000;fill:#000000;fill-opacity:1;stroke:none;stroke-width:32;marker:none;visibility:visible;display:inline;overflow:visible;enable-background:accumulate;font-family:Sans;-inkscape-font-specification:Sans"
       d="M 149 136.34375 C 135.6481 136.4536 122.65607 139.9927 109.15625 144.15625 C 90.192953 144.94293 74.323963 153.35247 63.96875 165.03125 C 53.534583 176.79908 48.126376 191.12704 45.90625 204.90625 C 39.51759 225.66396 39.205057 245.95592 38.59375 264.4375 C 37.270461 274.43675 35.531543 286.31047 36.53125 299.0625 C 37.531084 311.81615 41.845252 326.06277 52.71875 337.1875 C 55.688481 340.5737 64.559676 354.71574 70.8125 368.3125 C 77.065324 381.90926 80.128349 398.04761 80.15625 397.84375 L 79.9375 399.28125 L 80.03125 400.75 C 80.475777 410.06154 79.290219 409.69742 74 415.46875 C 69.01681 420.90513 59.670444 430.67235 55.90625 446.28125 C 49.168143 458.72465 48.343236 472.98683 53.21875 485.84375 C 58.222901 499.03989 72.609787 510.61929 89.59375 510.28125 L 89.59375 510.34375 C 90.364852 510.38831 91.085702 510.3022 91.84375 510.3125 C 110.12096 510.56092 124.73838 501.18362 140.25 493.625 C 156.40497 485.75288 173.57301 479.88847 175.21875 479.96875 L 179.21875 480.1875 L 182.8125 478.46875 C 193.86522 473.25441 201.361 471.81292 213.09375 473.71875 C 224.8265 475.62458 241.0529 481.90231 264.59375 494.1875 L 271.875 497.96875 L 279.1875 494.3125 C 303.68921 482.00476 309.41807 477.02768 330.03125 460.46875 L 330.625 459.96875 L 331.21875 459.4375 C 338.38294 452.411 341.16639 443.24599 342.03125 435.1875 C 342.89611 427.12901 342.14196 419.47089 341.125 412.1875 C 339.09108 397.62073 336.51859 383.22167 336.90625 379.9375 L 337.09375 378.53125 L 337 377.15625 C 335.5202 350.7705 336.29052 323.6242 335.78125 295.84375 L 335.78125 295.8125 L 335.78125 295.75 C 335.10151 267.02853 315.20195 249.07364 304.53125 235 L 303.5625 233.75 L 302.40625 232.71875 C 286.05414 218.17337 264.40019 209.27244 245.40625 199.375 C 226.41231 189.47756 211.28132 178.78139 206.3125 168.84375 L 205.71875 167.65625 L 204.9375 166.59375 C 192.04577 148.89763 175.39049 138.81256 158.125 136.8125 C 155.96681 136.56249 153.82059 136.43212 151.6875 136.375 C 150.79403 136.35107 149.89013 136.33643 149 136.34375 z M 149.0625 168.40625 C 150.98659 168.35579 152.77994 168.43299 154.4375 168.625 C 163.22463 169.64292 169.78984 172.77543 178.90625 185.21875 C 190.23484 205.91717 210.97902 217.51278 230.625 227.75 C 250.53259 238.12353 270.22442 247.39863 280.375 256.09375 C 292.70014 272.155 303.43329 283.88866 303.78125 296.4375 C 303.78182 296.4683 303.78069 296.50045 303.78125 296.53125 C 304.26192 322.9128 303.53788 350.03312 305.03125 377.78125 C 303.74612 392.07565 307.79458 404.8586 309.4375 416.625 C 310.28981 422.72916 310.60231 428.20742 310.21875 431.78125 C 309.8617 435.10812 309.18077 436.06737 308.875 436.40625 C 291.74484 450.19914 287.58426 453.81786 271.84375 462.03125 C 250.84128 451.46114 233.96927 444.68347 218.21875 442.125 C 201.95152 439.4826 186.87485 442.13011 172.8125 448.09375 C 155.4142 448.58471 141.24634 457.56747 126.25 464.875 C 110.11531 472.73724 92.962527 478.46314 91.4375 478.375 L 90.3125 478.3125 L 89.1875 478.40625 C 84.115207 478.82889 84.552828 478.18283 83.15625 474.5 C 81.759672 470.81717 82.260547 464.14284 84.5 460.5625 L 86.125 457.96875 L 86.6875 455 C 88.356599 445.99766 91.253718 444.01037 97.59375 437.09375 C 103.74434 430.3838 112.20369 417.71443 111.9375 400.78125 C 113.73772 384.16978 106.92817 370.20665 99.90625 354.9375 C 92.687883 339.24117 84.776663 325.21041 76.78125 316.09375 L 76.34375 315.625 L 75.90625 315.1875 C 71.063037 310.46371 69.088242 304.86321 68.4375 296.5625 C 67.786758 288.26179 69.053674 278.00872 70.40625 267.71875 L 70.5 266.96875 L 70.53125 266.1875 C 71.176103 246.99499 71.741074 229.29398 76.65625 213.71875 L 77.03125 212.4375 L 77.21875 211.125 C 78.515659 201.97383 82.305872 192.5662 87.90625 186.25 C 93.506628 179.9338 100.23882 176 112 176 L 114.4375 176 L 116.75 175.28125 C 128.921 171.49167 139.05857 169.04642 147.09375 168.5 C 147.76335 168.45446 148.42114 168.42307 149.0625 168.40625 z "
       transform="translate(0,-448)"
       id="path3033" />
  </g>
</svg>
